<?xml version="1.0" encoding="UTF-8" standalone="no"?>
<svg
   xmlns:dc="http://purl.org/dc/elements/1.1/"
   xmlns:cc="http://creativecommons.org/ns#"
   xmlns:rdf="http://www.w3.org/1999/02/22-rdf-syntax-ns#"
   xmlns:svg="http://www.w3.org/2000/svg"
   xmlns="http://www.w3.org/2000/svg"
   xmlns:sodipodi="http://sodipodi.sourceforge.net/DTD/sodipodi-0.dtd"
   xmlns:inkscape="http://www.inkscape.org/namespaces/inkscape"
   fill-opacity="1"
   color-rendering="auto"
   color-interpolation="auto"
   text-rendering="auto"
   stroke="black"
   stroke-linecap="square"
   width="740"
   stroke-miterlimit="10"
   shape-rendering="auto"
   stroke-opacity="1"
   fill="black"
   stroke-dasharray="none"
   font-weight="normal"
   stroke-width="1"
   viewBox="100 10 740 600"
   height="600"
   font-family="'Dialog'"
   font-style="normal"
   stroke-linejoin="miter"
   font-size="12"
   stroke-dashoffset="0"
   image-rendering="auto"
   id="svg2"
   version="1.1"
   inkscape:version="0.91 r13725"
   sodipodi:docname="acteurs_controleurs.svg"
   inkscape:export-filename="/home/lyuyhn/Documents/HEIG/Semestre 6/WEBRAILS/Projet/plylst.it/Rapport/acteurs_controleurs.png"
   inkscape:export-xdpi="259.97"
   inkscape:export-ydpi="259.97">
  <metadata
     id="metadata417">
    <rdf:RDF>
      <cc:Work
         rdf:about="">
        <dc:format>image/svg+xml</dc:format>
        <dc:type
           rdf:resource="http://purl.org/dc/dcmitype/StillImage" />
      </cc:Work>
    </rdf:RDF>
  </metadata>
  <sodipodi:namedview
     pagecolor="#ffffff"
     bordercolor="#666666"
     borderopacity="1"
     objecttolerance="10"
     gridtolerance="10"
     guidetolerance="10"
     inkscape:pageopacity="0"
     inkscape:pageshadow="2"
     inkscape:window-width="1366"
     inkscape:window-height="706"
     id="namedview415"
     showgrid="false"
     inkscape:zoom="0.85950569"
     inkscape:cx="456.00044"
     inkscape:cy="271.7586"
     inkscape:window-x="0"
     inkscape:window-y="30"
     inkscape:window-maximized="1"
     inkscape:current-layer="svg2" />
  <!--Generated by the Batik Graphics2D SVG Generator-->
  <path
     style="fill:#d3d4ff;fill-rule:evenodd;stroke:#000000;stroke-width:1.5;stroke-linecap:butt;stroke-linejoin:miter;stroke-opacity:1;fill-opacity:1;opacity:1;stroke-miterlimit:10;stroke-dasharray:none"
     d="m 403.66291,221.40455 c 7.50507,-10.6774 108.84264,-3.97004 158.23049,-23.26919 10.68656,-4.17596 70.97102,-59.33643 148.9228,-60.49989 77.95179,-1.16346 77.83068,44.82561 83.76908,63.99027 6.02629,19.44828 8.72595,40.13935 11.05286,73.87967 2.95313,42.82033 -153.79997,36.94506 -180.91793,14.54325 -13.37979,-11.05287 -58.7547,-35.48552 -79.11525,-31.41341 -16.13428,3.22686 -134.89661,15.50479 -141.94205,5.8173 -9.30767,-12.79806 -8.25158,-31.30855 0,-43.048 z"
     id="path4360"
     inkscape:connector-curvature="0"
     sodipodi:nodetypes="sssssssss" />
  <defs
     id="genericDefs" />
  <g
     id="g5">
    <defs
       id="defs1">
      <clipPath
         clipPathUnits="userSpaceOnUse"
         id="clipPath1">
        <path
           d="M0 0 L2147483647 0 L2147483647 2147483647 L0 2147483647 L0 0 Z"
           id="path9" />
      </clipPath>
      <clipPath
         clipPathUnits="userSpaceOnUse"
         id="clipPath2">
        <path
           d="M0 0 L0 50 L160 50 L160 0 Z"
           id="path12" />
      </clipPath>
      <clipPath
         clipPathUnits="userSpaceOnUse"
         id="clipPath3">
        <path
           d="M0 0 L0 50 L150 50 L150 0 Z"
           id="path15" />
      </clipPath>
      <clipPath
         clipPathUnits="userSpaceOnUse"
         id="clipPath4">
        <path
           d="M0 0 L0 50 L140 50 L140 0 Z"
           id="path18" />
      </clipPath>
      <clipPath
         clipPathUnits="userSpaceOnUse"
         id="clipPath5">
        <path
           d="M0 0 L0 60 L180 60 L180 0 Z"
           id="path21" />
      </clipPath>
      <clipPath
         clipPathUnits="userSpaceOnUse"
         id="clipPath6">
        <path
           d="M0 0 L0 50 L130 50 L130 0 Z"
           id="path24" />
      </clipPath>
      <clipPath
         clipPathUnits="userSpaceOnUse"
         id="clipPath7">
        <path
           d="M0 0 L0 40 L140 40 L140 0 Z"
           id="path27" />
      </clipPath>
      <clipPath
         clipPathUnits="userSpaceOnUse"
         id="clipPath8">
        <path
           d="M0 0 L0 560 L580 560 L580 0 Z"
           id="path30" />
      </clipPath>
      <clipPath
         clipPathUnits="userSpaceOnUse"
         id="clipPath9">
        <path
           d="M0 0 L0 40 L120 40 L120 0 Z"
           id="path33" />
      </clipPath>
      <clipPath
         clipPathUnits="userSpaceOnUse"
         id="clipPath10">
        <path
           d="M0 0 L0 100 L100 100 L100 0 Z"
           id="path36" />
      </clipPath>
      <clipPath
         clipPathUnits="userSpaceOnUse"
         id="clipPath11">
        <path
           d="M0 0 L0 120 L120 120 L120 0 Z"
           id="path39" />
      </clipPath>
      <clipPath
         clipPathUnits="userSpaceOnUse"
         id="clipPath12">
        <path
           d="M0 0 L0 120 L80 120 L80 0 Z"
           id="path42" />
      </clipPath>
      <clipPath
         clipPathUnits="userSpaceOnUse"
         id="clipPath13">
        <path
           d="M0 0 L0 100 L160 100 L160 0 Z"
           id="path45" />
      </clipPath>
      <clipPath
         clipPathUnits="userSpaceOnUse"
         id="clipPath14">
        <path
           d="M0 0 L0 70 L170 70 L170 0 Z"
           id="path48" />
      </clipPath>
      <clipPath
         clipPathUnits="userSpaceOnUse"
         id="clipPath15">
        <path
           d="M0 0 L0 50 L370 50 L370 0 Z"
           id="path51" />
      </clipPath>
      <clipPath
         clipPathUnits="userSpaceOnUse"
         id="clipPath16">
        <path
           d="M0 0 L0 170 L210 170 L210 0 Z"
           id="path54" />
      </clipPath>
      <clipPath
         clipPathUnits="userSpaceOnUse"
         id="clipPath17">
        <path
           d="M0 0 L0 80 L440 80 L440 0 Z"
           id="path57" />
      </clipPath>
      <clipPath
         clipPathUnits="userSpaceOnUse"
         id="clipPath18">
        <path
           d="M0 0 L0 40 L360 40 L360 0 Z"
           id="path60" />
      </clipPath>
      <clipPath
         clipPathUnits="userSpaceOnUse"
         id="clipPath19">
        <path
           d="M0 0 L0 90 L320 90 L320 0 Z"
           id="path63" />
      </clipPath>
      <clipPath
         clipPathUnits="userSpaceOnUse"
         id="clipPath20">
        <path
           d="M0 0 L0 90 L150 90 L150 0 Z"
           id="path66" />
      </clipPath>
      <clipPath
         clipPathUnits="userSpaceOnUse"
         id="clipPath21">
        <path
           d="M0 0 L0 120 L420 120 L420 0 Z"
           id="path69" />
      </clipPath>
      <clipPath
         clipPathUnits="userSpaceOnUse"
         id="clipPath22">
        <path
           d="M0 0 L0 70 L250 70 L250 0 Z"
           id="path72" />
      </clipPath>
      <clipPath
         clipPathUnits="userSpaceOnUse"
         id="clipPath23">
        <path
           d="M0 0 L0 60 L150 60 L150 0 Z"
           id="path75" />
      </clipPath>
      <clipPath
         clipPathUnits="userSpaceOnUse"
         id="clipPath24">
        <path
           d="M0 0 L0 80 L110 80 L110 0 Z"
           id="path78" />
      </clipPath>
      <clipPath
         clipPathUnits="userSpaceOnUse"
         id="clipPath25">
        <path
           d="M0 0 L0 50 L300 50 L300 0 Z"
           id="path81" />
      </clipPath>
      <clipPath
         clipPathUnits="userSpaceOnUse"
         id="clipPath26">
        <path
           d="M0 0 L0 120 L260 120 L260 0 Z"
           id="path84" />
      </clipPath>
      <clipPath
         clipPathUnits="userSpaceOnUse"
         id="clipPath27">
        <path
           d="M0 0 L0 50 L200 50 L200 0 Z"
           id="path87" />
      </clipPath>
      <clipPath
         clipPathUnits="userSpaceOnUse"
         id="clipPath28">
        <path
           d="M0 0 L0 70 L120 70 L120 0 Z"
           id="path90" />
      </clipPath>
      <clipPath
         clipPathUnits="userSpaceOnUse"
         id="clipPath29">
        <path
           d="M0 0 L0 100 L30 100 L30 0 Z"
           id="path93" />
      </clipPath>
    </defs>
    <path
       style="opacity:1;fill:#4efffc;fill-opacity:1;fill-rule:evenodd;stroke:#000000;stroke-width:1px;stroke-linecap:butt;stroke-linejoin:miter;stroke-opacity:1"
       d="M 301.86022,583.24043 C 262.21194,577.78963 249.50091,568.91949 245.43243,537.86551 231.81325,433.91282 197.73059,67.827903 226.81708,44.558714 255.90356,21.289525 364.10529,25.943363 386.21102,31.76066 c 22.10573,5.817298 29.20483,22.495161 24.43265,30.249946 -4.65384,7.562487 -48.86529,24.432648 -72.13449,26.759567 -11.80611,1.180611 -93.65848,2.908648 -102.96616,8.725945 -9.30767,5.817302 15.70671,420.590582 22.10574,423.499232 7.41421,3.3701 206.51404,-7.56248 222.80248,-6.39902 16.28843,1.16346 92.49502,-3.49038 125.07188,37.23069 28.6329,35.79111 -267.54384,36.37902 -303.6629,31.41341 z"
       id="path4366"
       inkscape:connector-curvature="0"
       sodipodi:nodetypes="sssssssssss" />
    <path
       style="fill:#a3ff6f;fill-rule:evenodd;stroke:#000000;stroke-width:1px;stroke-linecap:butt;stroke-linejoin:miter;stroke-opacity:1;fill-opacity:1"
       d="m 533.14632,161.63392 c -33.24527,-0.34298 -102.19875,33.27229 -100.77954,40.72316 1.64539,8.63825 57.17696,7.81555 90.49591,-0.82269 33.31895,-8.63825 62.1131,-22.62398 51.41813,-32.49626 -10.69497,-9.87228 -26.46334,-7.25286 -41.1345,-7.40421 z"
       id="path4364"
       inkscape:connector-curvature="0"
       sodipodi:nodetypes="sssss" />
    <path
       style="fill:#ff954e;fill-opacity:1;fill-rule:evenodd;stroke:#000000;stroke-width:1px;stroke-linecap:butt;stroke-linejoin:miter;stroke-opacity:1"
       d="m 330.36497,116.6932 c 36.93272,-31.70041 83.54708,-44.031792 133.21611,-53.519135 51.77394,-9.889405 223.38421,-20.942269 235.0188,9.307676 11.6346,30.249949 -195.49959,90.572349 -217.60532,99.880029 -21.06706,8.87034 -67.62545,32.38527 -84.3124,40.89856 -19.02212,9.70465 -23.03111,45.90736 -1.16346,66.31719 47.5836,7.85615 97.71483,-13.59023 148.92281,-14.54324 45.37492,0 74.28133,26.45636 91.91329,41.30281 10.96481,9.23257 87.25946,35.48551 110.52865,80.2787 7.29505,14.04297 63.99027,116.34594 48.86529,143.10551 -15.12497,26.75957 -165.31142,18.37863 -182.0814,9.8894 -60.24551,-30.49723 -247.45292,-43.79637 -345.54745,-119.83631 -33.7477,-26.16021 -25.50373,-196.2699 -11.6346,-221.0573 27.3413,-48.8653 51.39644,-62.72588 73.87968,-82.02389 z"
       id="path4362"
       inkscape:connector-curvature="0"
       sodipodi:nodetypes="sssssccsssssss" />
    <g
       fill="rgb(255,255,255)"
       fill-opacity="0"
       transform="translate(260,530)"
       stroke-opacity="0"
       stroke="rgb(255,255,255)"
       id="g95">
      <ellipse
         rx="79.25"
         ry="24.25"
         clip-path="url(#clipPath2)"
         cx="79.75"
         cy="24.75"
         stroke="none"
         id="ellipse97" />
    </g>
    <g
       transform="translate(260,530)"
       id="g99">
      <ellipse
         rx="79.25"
         fill="none"
         ry="24.25"
         clip-path="url(#clipPath2)"
         cx="79.75"
         cy="24.75"
         id="ellipse101" />
      <text
         x="28"
         font-size="14"
         y="22"
         clip-path="url(#clipPath2)"
         font-family="sans-serif"
         stroke="none"
         xml:space="preserve"
         id="text103">Supprimer des</text>
      <text
         x="41"
         font-size="14"
         y="38.1094"
         clip-path="url(#clipPath2)"
         font-family="sans-serif"
         stroke="none"
         xml:space="preserve"
         id="text105">utilisateurs</text>
    </g>
    <g
       fill="rgb(255,255,255)"
       fill-opacity="0"
       transform="translate(330,390)"
       stroke-opacity="0"
       stroke="rgb(255,255,255)"
       id="g107">
      <ellipse
         rx="74.25"
         ry="24.25"
         clip-path="url(#clipPath3)"
         cx="74.75"
         cy="24.75"
         stroke="none"
         id="ellipse109" />
    </g>
    <g
       transform="translate(330,390)"
       id="g111">
      <ellipse
         rx="74.25"
         fill="none"
         ry="24.25"
         clip-path="url(#clipPath3)"
         cx="74.75"
         cy="24.75"
         id="ellipse113" />
      <text
         x="23"
         font-size="14"
         y="22"
         clip-path="url(#clipPath3)"
         font-family="sans-serif"
         stroke="none"
         xml:space="preserve"
         id="text115">Afficher toutes</text>
      <text
         x="34"
         font-size="14"
         y="38.1094"
         clip-path="url(#clipPath3)"
         font-family="sans-serif"
         stroke="none"
         xml:space="preserve"
         id="text117">les playlists</text>
    </g>
    <g
       fill="rgb(255,255,255)"
       fill-opacity="0"
       transform="translate(530,60)"
       stroke-opacity="0"
       stroke="rgb(255,255,255)"
       id="g119">
      <ellipse
         rx="69.25"
         ry="24.25"
         clip-path="url(#clipPath4)"
         cx="69.75"
         cy="24.75"
         stroke="none"
         id="ellipse121" />
    </g>
    <g
       transform="translate(530,60)"
       id="g123">
      <ellipse
         rx="69.25"
         fill="none"
         ry="24.25"
         clip-path="url(#clipPath4)"
         cx="69.75"
         cy="24.75"
         id="ellipse125" />
      <text
         x="22"
         font-size="14"
         y="22"
         clip-path="url(#clipPath4)"
         font-family="sans-serif"
         stroke="none"
         xml:space="preserve"
         id="text127">Afficher listes</text>
      <text
         x="35"
         font-size="14"
         y="38.1094"
         clip-path="url(#clipPath4)"
         font-family="sans-serif"
         stroke="none"
         xml:space="preserve"
         id="text129">publiques</text>
    </g>
    <g
       fill="rgb(255,255,255)"
       fill-opacity="0"
       transform="translate(430,520)"
       stroke-opacity="0"
       stroke="rgb(255,255,255)"
       id="g131">
      <ellipse
         rx="79.25"
         ry="24.25"
         clip-path="url(#clipPath2)"
         cx="79.75"
         cy="24.75"
         stroke="none"
         id="ellipse133" />
    </g>
    <g
       transform="translate(430,520)"
       id="g135">
      <ellipse
         rx="79.25"
         fill="none"
         ry="24.25"
         clip-path="url(#clipPath2)"
         cx="79.75"
         cy="24.75"
         id="ellipse137" />
      <text
         x="23"
         font-size="14"
         y="22"
         clip-path="url(#clipPath2)"
         font-family="sans-serif"
         stroke="none"
         xml:space="preserve"
         id="text139">Afficher tous les</text>
      <text
         x="41"
         font-size="14"
         y="38.1094"
         clip-path="url(#clipPath2)"
         font-family="sans-serif"
         stroke="none"
         xml:space="preserve"
         id="text141">utilisateurs</text>
    </g>
    <g
       fill="rgb(255,255,255)"
       fill-opacity="0"
       transform="translate(600,480)"
       stroke-opacity="0"
       stroke="rgb(255,255,255)"
       id="g143">
      <ellipse
         rx="89.25"
         ry="29.25"
         clip-path="url(#clipPath5)"
         cx="89.75"
         cy="29.75"
         stroke="none"
         id="ellipse145" />
    </g>
    <g
       transform="translate(600,480)"
       id="g147">
      <ellipse
         rx="89.25"
         fill="none"
         ry="29.25"
         clip-path="url(#clipPath5)"
         cx="89.75"
         cy="29.75"
         id="ellipse149" />
      <text
         x="17"
         font-size="14"
         y="33.5547"
         clip-path="url(#clipPath5)"
         font-family="sans-serif"
         stroke="none"
         xml:space="preserve"
         id="text151">Supprimer n'importe</text>
      <text
         x="41"
         font-size="14"
         y="49.6641"
         clip-path="url(#clipPath5)"
         font-family="sans-serif"
         stroke="none"
         xml:space="preserve"
         id="text153">quelle playlist</text>
    </g>
    <g
       fill="rgb(255,255,255)"
       fill-opacity="0"
       transform="translate(520,430)"
       stroke-opacity="0"
       stroke="rgb(255,255,255)"
       id="g155">
      <ellipse
         rx="74.25"
         ry="24.25"
         clip-path="url(#clipPath3)"
         cx="74.75"
         cy="24.75"
         stroke="none"
         id="ellipse157" />
    </g>
    <g
       transform="translate(520,430)"
       id="g159">
      <ellipse
         rx="74.25"
         fill="none"
         ry="24.25"
         clip-path="url(#clipPath3)"
         cx="74.75"
         cy="24.75"
         id="ellipse161" />
      <text
         x="23"
         font-size="14"
         y="22"
         clip-path="url(#clipPath3)"
         font-family="sans-serif"
         stroke="none"
         xml:space="preserve"
         id="text163">Écouter toutes</text>
      <text
         x="34"
         font-size="14"
         y="38.1094"
         clip-path="url(#clipPath3)"
         font-family="sans-serif"
         stroke="none"
         xml:space="preserve"
         id="text165">les playlists</text>
    </g>
    <g
       fill="rgb(255,255,255)"
       fill-opacity="0"
       transform="translate(250,340)"
       stroke-opacity="0"
       stroke="rgb(255,255,255)"
       id="g167">
      <ellipse
         rx="74.25"
         ry="24.25"
         clip-path="url(#clipPath3)"
         cx="74.75"
         cy="24.75"
         stroke="none"
         id="ellipse169" />
    </g>
    <g
       transform="translate(250,340)"
       id="g171">
      <ellipse
         rx="74.25"
         fill="none"
         ry="24.25"
         clip-path="url(#clipPath3)"
         cx="74.75"
         cy="24.75"
         id="ellipse173" />
      <text
         x="35"
         font-size="14"
         y="22"
         clip-path="url(#clipPath3)"
         font-family="sans-serif"
         stroke="none"
         xml:space="preserve"
         id="text175">Écouter les</text>
      <text
         x="23"
         font-size="14"
         y="38.1094"
         clip-path="url(#clipPath3)"
         font-family="sans-serif"
         stroke="none"
         xml:space="preserve"
         id="text177">listes des amis</text>
    </g>
    <g
       fill="rgb(255,255,255)"
       fill-opacity="0"
       transform="translate(570,360)"
       stroke-opacity="0"
       stroke="rgb(255,255,255)"
       id="g179">
      <ellipse
         rx="74.25"
         ry="24.25"
         clip-path="url(#clipPath3)"
         cx="74.75"
         cy="24.75"
         stroke="none"
         id="ellipse181" />
    </g>
    <g
       transform="translate(570,360)"
       id="g183">
      <ellipse
         rx="74.25"
         fill="none"
         ry="24.25"
         clip-path="url(#clipPath3)"
         cx="74.75"
         cy="24.75"
         id="ellipse185" />
      <text
         x="29"
         font-size="14"
         y="30.0547"
         clip-path="url(#clipPath3)"
         font-family="sans-serif"
         stroke="none"
         xml:space="preserve"
         id="text187">Gérer favoris</text>
    </g>
    <g
       fill="rgb(255,255,255)"
       fill-opacity="0"
       transform="translate(660,240)"
       stroke-opacity="0"
       stroke="rgb(255,255,255)"
       id="g189">
      <ellipse
         rx="64.25"
         ry="24.25"
         clip-path="url(#clipPath6)"
         cx="64.75"
         cy="24.75"
         stroke="none"
         id="ellipse191" />
    </g>
    <g
       transform="translate(660,240)"
       id="g193">
      <ellipse
         rx="64.25"
         ry="24.25"
         clip-path="url(#clipPath6)"
         cx="64.75"
         cy="24.75"
         id="ellipse195"
         fill="none" />
      <text
         x="6"
         font-size="14"
         y="28.5547"
         clip-path="url(#clipPath6)"
         xml:space="preserve"
         id="text197"
         font-family="sans-serif"
         stroke="none">Accepter/refuser</text>
      <text
         x="48"
         font-size="14"
         y="44.6641"
         clip-path="url(#clipPath6)"
         xml:space="preserve"
         id="text199"
         font-family="sans-serif"
         stroke="none">amis</text>
    </g>
    <g
       fill="rgb(255,255,255)"
       fill-opacity="0"
       transform="translate(620,150)"
       stroke-opacity="0"
       stroke="rgb(255,255,255)"
       id="g201">
      <ellipse
         rx="69.25"
         ry="24.25"
         clip-path="url(#clipPath4)"
         cx="69.75"
         cy="24.75"
         stroke="none"
         id="ellipse203" />
    </g>
    <g
       transform="translate(620,150)"
       id="g205">
      <ellipse
         rx="69.25"
         fill="none"
         ry="24.25"
         clip-path="url(#clipPath4)"
         cx="69.75"
         cy="24.75"
         id="ellipse207" />
      <text
         x="6"
         font-size="14"
         y="28.5547"
         clip-path="url(#clipPath4)"
         font-family="sans-serif"
         stroke="none"
         xml:space="preserve"
         id="text209">Ajouter/supprimer</text>
      <text
         x="53"
         font-size="14"
         y="44.6641"
         clip-path="url(#clipPath4)"
         font-family="sans-serif"
         stroke="none"
         xml:space="preserve"
         id="text211">amis</text>
    </g>
    <g
       fill="rgb(255,255,255)"
       fill-opacity="0"
       transform="translate(410,220)"
       stroke-opacity="0"
       stroke="rgb(255,255,255)"
       id="g213">
      <ellipse
         rx="69.25"
         ry="19.25"
         clip-path="url(#clipPath7)"
         cx="69.75"
         cy="19.75"
         stroke="none"
         id="ellipse215" />
    </g>
    <g
       transform="translate(410,220)"
       id="g217">
      <ellipse
         rx="69.25"
         fill="none"
         ry="19.25"
         clip-path="url(#clipPath7)"
         cx="69.75"
         cy="19.75"
         id="ellipse219" />
      <text
         x="36"
         font-size="14"
         y="17"
         clip-path="url(#clipPath7)"
         font-family="sans-serif"
         stroke="none"
         xml:space="preserve"
         id="text221">Gérer ses</text>
      <text
         x="53"
         font-size="14"
         y="33.1094"
         clip-path="url(#clipPath7)"
         font-family="sans-serif"
         stroke="none"
         xml:space="preserve"
         id="text223">amis</text>
    </g>
    <g
       fill="rgb(255,255,255)"
       fill-opacity="0"
       transform="translate(460,270)"
       stroke-opacity="0"
       stroke="rgb(255,255,255)"
       id="g225">
      <ellipse
         rx="74.25"
         ry="24.25"
         clip-path="url(#clipPath3)"
         cx="74.75"
         cy="24.75"
         stroke="none"
         id="ellipse227" />
    </g>
    <g
       transform="translate(460,270)"
       id="g229">
      <ellipse
         rx="74.25"
         fill="none"
         ry="24.25"
         clip-path="url(#clipPath3)"
         cx="74.75"
         cy="24.75"
         id="ellipse231" />
      <text
         x="34"
         font-size="14"
         y="22"
         clip-path="url(#clipPath3)"
         font-family="sans-serif"
         stroke="none"
         xml:space="preserve"
         id="text233">Écouter ses</text>
      <text
         x="18"
         font-size="14"
         y="38.1094"
         clip-path="url(#clipPath3)"
         font-family="sans-serif"
         stroke="none"
         xml:space="preserve"
         id="text235">playlists privées</text>
    </g>
    <g
       fill="rgb(255,255,255)"
       fill-opacity="0"
       transform="translate(410,160)"
       stroke-opacity="0"
       stroke="rgb(255,255,255)"
       id="g237">
      <ellipse
         rx="69.25"
         ry="19.25"
         clip-path="url(#clipPath7)"
         cx="69.75"
         cy="19.75"
         stroke="none"
         id="ellipse239" />
    </g>
    <g
       transform="translate(410,160)"
       id="g241">
      <ellipse
         rx="69.25"
         fill="none"
         ry="19.25"
         clip-path="url(#clipPath7)"
         cx="69.75"
         cy="19.75"
         id="ellipse243" />
      <text
         x="36"
         font-size="14"
         y="17"
         clip-path="url(#clipPath7)"
         font-family="sans-serif"
         stroke="none"
         xml:space="preserve"
         id="text245">Gérer ses</text>
      <text
         x="41"
         font-size="14"
         y="33.1094"
         clip-path="url(#clipPath7)"
         font-family="sans-serif"
         stroke="none"
         xml:space="preserve"
         id="text247">playlists</text>
    </g>
    <g
       fill="rgb(255,255,255)"
       fill-opacity="0"
       transform="translate(360,100)"
       stroke-opacity="0"
       stroke="rgb(255,255,255)"
       id="g249">
      <ellipse
         rx="69.25"
         ry="24.25"
         clip-path="url(#clipPath4)"
         cx="69.75"
         cy="24.75"
         stroke="none"
         id="ellipse251" />
    </g>
    <g
       transform="translate(360,100)"
       id="g253">
      <ellipse
         rx="69.25"
         fill="none"
         ry="24.25"
         clip-path="url(#clipPath4)"
         cx="69.75"
         cy="24.75"
         id="ellipse255" />
      <text
         x="22"
         font-size="14"
         y="22"
         clip-path="url(#clipPath4)"
         font-family="sans-serif"
         stroke="none"
         xml:space="preserve"
         id="text257">Écouter listes</text>
      <text
         x="35"
         font-size="14"
         y="38.1094"
         clip-path="url(#clipPath4)"
         font-family="sans-serif"
         stroke="none"
         xml:space="preserve"
         id="text259">publiques</text>
    </g>
    <g
       fill="rgb(255,255,255)"
       fill-opacity="0"
       transform="translate(240,30)"
       stroke-opacity="0"
       stroke="rgb(255,255,255)"
       id="g261">
      <rect
         x="0.5"
         width="578.5"
         height="558.5"
         y="0.5"
         clip-path="url(#clipPath8)"
         stroke="none"
         id="rect263" />
    </g>
    <g
       transform="translate(240,30)"
       id="g265">
      <rect
         fill="none"
         x="0.5"
         width="578.5"
         height="558.5"
         y="0.5"
         clip-path="url(#clipPath8)"
         id="rect267" />
      <text
         x="264"
         font-size="14"
         y="18.1094"
         clip-path="url(#clipPath8)"
         font-family="sans-serif"
         stroke="none"
         xml:space="preserve"
         id="text269">plylst.it</text>
    </g>
    <g
       fill="rgb(255,255,255)"
       fill-opacity="0"
       transform="translate(280,40)"
       stroke-opacity="0"
       stroke="rgb(255,255,255)"
       id="g271">
      <ellipse
         rx="59.25"
         ry="19.25"
         clip-path="url(#clipPath9)"
         cx="59.75"
         cy="19.75"
         stroke="none"
         id="ellipse273" />
    </g>
    <g
       transform="translate(280,40)"
       id="g275">
      <ellipse
         rx="59.25"
         fill="none"
         ry="19.25"
         clip-path="url(#clipPath9)"
         cx="59.75"
         cy="19.75"
         id="ellipse277" />
      <text
         x="14"
         font-size="14"
         y="23.5547"
         clip-path="url(#clipPath9)"
         font-family="sans-serif"
         stroke="none"
         xml:space="preserve"
         id="text279">S'enregistrer</text>
    </g>
    <g
       fill="rgb(255,255,255)"
       fill-opacity="0"
       transform="translate(130,240)"
       stroke-opacity="0"
       stroke="rgb(255,255,255)"
       id="g281">
      <circle
         r="7"
         clip-path="url(#clipPath10)"
         cx="50.5"
         cy="7.5"
         stroke="none"
         id="circle283" />
    </g>
    <g
       transform="translate(130,240)"
       id="g285">
      <circle
         fill="none"
         r="7"
         clip-path="url(#clipPath10)"
         cx="50.5"
         cy="7.5"
         id="circle287" />
      <path
         fill="none"
         d="M29.5 21.5 L71.5 21.5"
         clip-path="url(#clipPath10)"
         id="path289" />
      <path
         fill="none"
         d="M50.5 14.5 L50.5 42.5"
         clip-path="url(#clipPath10)"
         id="path291" />
      <path
         fill="none"
         d="M50.5 42.5 L36.5 70.5"
         clip-path="url(#clipPath10)"
         id="path293" />
      <path
         fill="none"
         d="M50.5 42.5 L64.5 70.5"
         clip-path="url(#clipPath10)"
         id="path295" />
      <text
         x="13"
         font-size="14"
         y="88.1094"
         clip-path="url(#clipPath10)"
         font-family="sans-serif"
         stroke="none"
         xml:space="preserve"
         id="text297">Utilisateur</text>
    </g>
    <g
       fill="rgb(255,255,255)"
       fill-opacity="0"
       transform="translate(120,420)"
       stroke-opacity="0"
       stroke="rgb(255,255,255)"
       id="g299">
      <circle
         r="7"
         clip-path="url(#clipPath11)"
         cx="60.5"
         cy="7.5"
         stroke="none"
         id="circle301" />
    </g>
    <g
       transform="translate(120,420)"
       id="g303">
      <circle
         fill="none"
         r="7"
         clip-path="url(#clipPath11)"
         cx="60.5"
         cy="7.5"
         id="circle305" />
      <path
         fill="none"
         d="M39.5 21.5 L81.5 21.5"
         clip-path="url(#clipPath11)"
         id="path307" />
      <path
         fill="none"
         d="M60.5 14.5 L60.5 42.5"
         clip-path="url(#clipPath11)"
         id="path309" />
      <path
         fill="none"
         d="M60.5 42.5 L46.5 70.5"
         clip-path="url(#clipPath11)"
         id="path311" />
      <path
         fill="none"
         d="M60.5 42.5 L74.5 70.5"
         clip-path="url(#clipPath11)"
         id="path313" />
      <text
         x="7"
         font-size="14"
         y="88.1094"
         clip-path="url(#clipPath11)"
         font-family="sans-serif"
         stroke="none"
         xml:space="preserve"
         id="text315">Administrateur</text>
    </g>
    <g
       fill="rgb(255,255,255)"
       fill-opacity="0"
       transform="translate(140,60)"
       stroke-opacity="0"
       stroke="rgb(255,255,255)"
       id="g317">
      <circle
         r="7"
         clip-path="url(#clipPath12)"
         cx="40.5"
         cy="7.5"
         stroke="none"
         id="circle319" />
    </g>
    <g
       transform="translate(140,60)"
       id="g321">
      <circle
         fill="none"
         r="7"
         clip-path="url(#clipPath12)"
         cx="40.5"
         cy="7.5"
         id="circle323" />
      <path
         fill="none"
         d="M19.5 21.5 L61.5 21.5"
         clip-path="url(#clipPath12)"
         id="path325" />
      <path
         fill="none"
         d="M40.5 14.5 L40.5 42.5"
         clip-path="url(#clipPath12)"
         id="path327" />
      <path
         fill="none"
         d="M40.5 42.5 L26.5 70.5"
         clip-path="url(#clipPath12)"
         id="path329" />
      <path
         fill="none"
         d="M40.5 42.5 L54.5 70.5"
         clip-path="url(#clipPath12)"
         id="path331" />
      <text
         x="13"
         font-size="14"
         y="88.1094"
         clip-path="url(#clipPath12)"
         font-family="sans-serif"
         stroke="none"
         xml:space="preserve"
         id="text333">Visiteur</text>
    </g>
    <g
       transform="translate(180,450)"
       id="g335">
      <path
         fill="none"
         d="M10.5 10.5 L140.5 80.5"
         clip-path="url(#clipPath13)"
         id="path337" />
    </g>
    <g
       transform="translate(180,410)"
       id="g339">
      <path
         fill="none"
         d="M10.5 50.5 L150.5 10.5"
         clip-path="url(#clipPath14)"
         id="path341" />
    </g>
    <g
       transform="translate(180,70)"
       id="g343">
      <path
         fill="none"
         d="M10.5 30.5 L350.5 20.5"
         clip-path="url(#clipPath15)"
         id="path345" />
    </g>
    <g
       transform="translate(180,130)"
       id="g347">
      <path
         fill="none"
         d="M10.5 150.5 L190.5 10.5"
         clip-path="url(#clipPath16)"
         id="path349" />
    </g>
    <g
       transform="translate(180,450)"
       id="g351">
      <path
         fill="none"
         d="M420.5 60.5 L10.5 10.5"
         clip-path="url(#clipPath17)"
         id="path353" />
    </g>
    <g
       transform="translate(180,440)"
       id="g355">
      <path
         fill="none"
         d="M340.5 20.5 L10.5 20.5"
         clip-path="url(#clipPath18)"
         id="path357" />
    </g>
    <g
       transform="translate(180,450)"
       id="g359">
      <path
         fill="none"
         d="M10.5 10.5 L300.5 70.5"
         clip-path="url(#clipPath19)"
         id="path361" />
    </g>
    <g
       transform="translate(180,270)"
       id="g363">
      <path
         fill="none"
         d="M10.5 10.5 L130.5 70.5"
         clip-path="url(#clipPath20)"
         id="path365" />
    </g>
    <g
       transform="translate(180,270)"
       id="g367">
      <path
         fill="none"
         d="M10.5 10.5 L400.5 100.5"
         clip-path="url(#clipPath21)"
         id="path369" />
    </g>
    <g
       transform="translate(180,230)"
       id="g371">
      <path
         fill="none"
         d="M10.5 50.5 L230.5 10.5"
         clip-path="url(#clipPath22)"
         id="path373" />
    </g>
    <g
       transform="translate(540,230)"
       id="g375">
      <path
         fill="none"
         d="M10.5 10.5 L123.5 32.5"
         clip-path="url(#clipPath23)"
         id="path377" />
      <path
         fill="white"
         d="M20.3087 19.0317 L10.5 10.5 L22.793 6.2713 L20.3087 19.0317"
         clip-path="url(#clipPath23)"
         stroke="none"
         id="path379" />
      <path
         fill="none"
         d="M20.3087 19.0317 L10.5 10.5 L22.793 6.2713 L20.3087 19.0317"
         clip-path="url(#clipPath23)"
         id="path381" />
    </g>
    <g
       transform="translate(530,170)"
       id="g383">
      <path
         fill="none"
         d="M10.5 60.5 L90.5 10.5"
         clip-path="url(#clipPath24)"
         id="path385" />
      <path
         fill="white"
         d="M23.492 60.0451 L10.5 60.5 L16.6021 49.0211 L23.492 60.0451"
         clip-path="url(#clipPath24)"
         stroke="none"
         id="path387" />
      <path
         fill="none"
         d="M23.492 60.0451 L10.5 60.5 L16.6021 49.0211 L23.492 60.0451"
         clip-path="url(#clipPath24)"
         id="path389" />
    </g>
    <g
       transform="translate(180,260)"
       id="g391">
      <path
         fill="none"
         d="M10.5 20.5 L280.5 30.5"
         clip-path="url(#clipPath25)"
         id="path393" />
    </g>
    <g
       transform="translate(180,180)"
       id="g395">
      <path
         fill="none"
         d="M10.5 100.5 L240.5 10.5"
         clip-path="url(#clipPath26)"
         id="path397" />
    </g>
    <g
       transform="translate(180,90)"
       id="g399">
      <path
         fill="none"
         d="M10.5 10.5 L180.5 30.5"
         clip-path="url(#clipPath27)"
         id="path401" />
    </g>
    <g
       transform="translate(180,50)"
       id="g403">
      <path
         fill="none"
         d="M10.5 50.5 L100.5 10.5"
         clip-path="url(#clipPath28)"
         id="path405" />
    </g>
    <g
       transform="translate(170,330)"
       id="g407">
      <path
         fill="none"
         d="M10.5 80.5 L10.5 10.5"
         clip-path="url(#clipPath29)"
         id="path409" />
      <path
         fill="white"
         d="M17 21.7583 L10.5 10.5 L4 21.7583 L17 21.7583"
         clip-path="url(#clipPath29)"
         stroke="none"
         id="path411" />
      <path
         fill="none"
         d="M17 21.7583 L10.5 10.5 L4 21.7583 L17 21.7583"
         clip-path="url(#clipPath29)"
         id="path413" />
    </g>
  </g>
</svg>
